HIERARCHY
ROOT Hips
{
    OFFSET 0.0 0.0 0.0
    CHANNELS 6 Xposition Yposition Zposition Zrotation Xrotation Yrotation
    JOINT LeftHipJoint
    {
        OFFSET 0.1 0.0 0.0
        CHANNELS 3 Zrotation Xrotation Yrotation
        JOINT LeftUpLeg
        {
            OFFSET 11.362306431761457 0.0 0.0
            CHANNELS 3 Zrotation Xrotation Yrotation
            JOINT LeftLeg
            {
                OFFSET 0.0 0.0 -49.54311506866986
                CHANNELS 3 Zrotation Xrotation Yrotation
                JOINT LeftFoot
                {
                    OFFSET 0.0 0.0 -47.3226039123563
                    CHANNELS 3 Zrotation Xrotation Yrotation
                    End Site
                    {
                        OFFSET 0.0 -0.1 0.0
                    }
                }
            }
        }
    }
    JOINT LowerBack
    {
        OFFSET 0.0 0.0 0.1
        CHANNELS 3 Zrotation Xrotation Yrotation
        JOINT Spine
        {
            OFFSET 0.0 0.0 23.7734860828389
            CHANNELS 3 Zrotation Xrotation Yrotation
            JOINT Spine1
            {
                OFFSET 0.0 0.0 25.638137968707934
                CHANNELS 3 Zrotation Xrotation Yrotation
                JOINT LeftShoulder
                {
                    OFFSET 0.1 0.0 0.0
                    CHANNELS 3 Zrotation Xrotation Yrotation
                    JOINT LeftArm
                    {
                        OFFSET 13.505195669849297 0.0 0.0
                        CHANNELS 3 Zrotation Xrotation Yrotation
                        JOINT LeftForeArm
                        {
                            OFFSET 27.63447433325428 0.0 0.0
                            CHANNELS 3 Zrotation Xrotation Yrotation
                            JOINT LeftHand
                            {
                                OFFSET 21.279673504043053 0.0 0.0
                                CHANNELS 3 Zrotation Xrotation Yrotation
                                End Site
                                {
                                    OFFSET 0.1 0.0 0.0
                                }
                            }
                        }
                    }
                }
                JOINT Neck
                {
                    OFFSET 0.0 0.0 0.1
                    CHANNELS 3 Zrotation Xrotation Yrotation
                    JOINT Neck1
                    {
                        OFFSET 0.0 0.0 15.122100355411579
                        CHANNELS 3 Zrotation Xrotation Yrotation
                        End Site
                        {
                            OFFSET 0.0 0.0 11.443440541606806
                        }
                    }
                }
                JOINT RightShoulder
                {
                    OFFSET -0.1 0.0 0.0
                    CHANNELS 3 Zrotation Xrotation Yrotation
                    JOINT RightArm
                    {
                        OFFSET -13.505195669849297 0.0 0.0
                        CHANNELS 3 Zrotation Xrotation Yrotation
                        JOINT RightForeArm
                        {
                            OFFSET -27.63447433325428 0.0 0.0
                            CHANNELS 3 Zrotation Xrotation Yrotation
                            JOINT RightHand
                            {
                                OFFSET -21.279673504043053 0.0 0.0
                                CHANNELS 3 Zrotation Xrotation Yrotation
                                End Site
                                {
                                    OFFSET -0.1 0.0 0.0
                                }
                            }
                        }
                    }
                }
            }
        }
    }
    JOINT RightHipJoint
    {
        OFFSET -0.1 0.0 0.0
        CHANNELS 3 Zrotation Xrotation Yrotation
        JOINT RightUpLeg
        {
            OFFSET -11.362306431761457 0.0 0.0
            CHANNELS 3 Zrotation Xrotation Yrotation
            JOINT RightLeg
            {
                OFFSET 0.0 0.0 -49.54311506866986
                CHANNELS 3 Zrotation Xrotation Yrotation
                JOINT RightFoot
                {
                    OFFSET 0.0 0.0 -47.3226039123563
                    CHANNELS 3 Zrotation Xrotation Yrotation
                    End Site
                    {
                        OFFSET 0.0 -0.1 0.0
                    }
                }
            }
        }
    }
}
MOTION
Frames: 11
Frame Time: 0.016666666666666666
0.0 0.0 100.47347915466602 -116.03432608954724 60.910287756833846 -60.37682589701965 0.0 0.0 0.0 -1.5597864197003461 20.096234065398455 -3.624249746816383 -1.3381955056680417 9.286092497316812 2.5382506937635645 0.0 0.0 0.0 0.0 0.0 0.0 -2.079826276705426 26.167578016287106 -0.24816096710794522 -4.137487989287703 1.589240853564991e-15 5.740670522589412e-17 0.0 0.0 0.0 -35.62265009964547 -13.006446036858067 49.297693900210895 -107.92795672113816 -1.1108026663193694e-14 -4.4558799244973396e-15 0.0 0.0 -3.1805546814635168e-15 0.0 0.0 0.0 0.33271650467570346 4.758001244317917 0.12028265677015124 0.0 0.0 0.0 58.41725472138126 35.64729766506692 -58.20436880935342 89.31334352787681 -9.527721698829327e-15 -5.117415136104579e-15 -3.1805546814635168e-15 0.0 0.0 0.0 0.0 0.0 -0.8424159015937972 11.392978045049436 7.0629909332687975 0.5206618053876403 10.677809919531997 6.314948722577613 0.0 0.0 0.0
0.0 0.0 100.47347915466602 -117.8606042661786 61.61449164828958 -59.894850501865534 0.0 0.0 0.0 -2.029303659204832 20.922946818439986 -1.4936658279563872 -1.147886791395716 9.096019705897007 2.623877445913275 0.0 0.0 0.0 0.0 0.0 0.0 -2.7028423302014053 27.1213865928152 1.467945634639232 -3.411974130228918 -4.7343656793803697e-17 1.5895724578031236e-15 -3.1805546814635168e-15 4.4139062980501586e-32 -1.5902773407317584e-15 -34.631831904023514 -11.502095559887609 51.385637130537255 -107.94086301324188 2.5721576666327452e-15 -1.8708107920797028e-15 0.0 0.0 0.0 -3.1805546814635168e-15 4.4139062980501586e-32 -1.5902773407317584e-15 0.8255205153621098 6.715038501807186 -0.39309708410368743 -3.1805546814635168e-15 4.4139062980501586e-32 -1.5902773407317584e-15 59.50314986944771 34.25356330552709 -58.74319617087969 87.29610977264771 -2.5136759634981703e-15 1.1188766608239935e-14 -3.1805546814635168e-15 0.0 0.0 0.0 0.0 0.0 -1.1024508635978012 11.920428606114859 8.233823105908284 0.5210651350114395 10.30666019677787 6.312410788967278 0.0 0.0 0.0
0.0 0.0 100.47347915466602 -116.46577351186934 62.229228455356704 -61.23518053370792 0.0 0.0 0.0 -1.8672353411385172 19.52313421311338 -1.264312995168614 -1.028681184716161 8.55326559187642 3.2237974338610997 0.0 0.0 -1.5902773407317584e-15 0.0 0.0 0.0 -2.7116831857266908 27.386736412214212 1.5583464073141848 -2.735345886312883 0.0 0.0 0.0 0.0 0.0 -32.29131569039196 -8.07724502081852 53.746192294940684 -102.97230685835912 8.925415288770672e-15 6.107567467376366e-15 0.0 0.0 3.1805546814635168e-15 0.0 0.0 0.0 -0.3029715799301147 5.778854267735413 -0.13371891213596312 0.0 0.0 0.0 58.657386247278886 33.04190710518953 -59.442575888757275 83.7894799193354 2.9421329850993024e-15 8.042657029296473e-15 -3.1805546814635168e-15 0.0 0.0 0.0 0.0 0.0 -1.0263380270877034 11.211307700148014 8.193339024036279 0.5340764820528944 10.500807808913141 5.962204974881221 -3.1805546814635168e-15 0.0 0.0
0.0 0.0 100.47347915466602 -117.26415279655139 61.47958484685313 -61.24594243315995 0.0 0.0 0.0 -1.7587064330874012 19.921635691500274 -0.6078654811628403 -1.007055053326254 9.93758710504144 3.661035937706892 0.0 0.0 0.0 0.0 0.0 0.0 -2.5705657628633527 28.06718983399906 2.2216427278469277 -3.0172355145182745 -1.4641229647768522e-15 -4.8110460555332225e-15 0.0 0.0 0.0 -31.084763540630675 -6.5374340520642535 53.852112560577595 -98.55753470919939 -1.8094237820098847e-14 8.231160210092877e-15 0.0 0.0 0.0 0.0 0.0 0.0 -4.026596032960167 5.454651313292534 -0.8293647384972217 0.0 0.0 0.0 56.48277635361793 30.353390286347835 -59.5139561909285 79.10056744890899 -4.477652369606841e-15 -4.2718312292648256e-16 0.0 6.361109362927035e-15 0.0 0.0 0.0 0.0 -1.1458364444938958 13.498952648264181 8.622256102231184 0.6934000459309237 10.647713149209602 6.691227183094567 0.0 0.0 0.0
0.0 0.0 100.47347915466602 -114.30464263881753 60.28478164386212 -64.53172516901768 0.0 0.0 0.0 -1.6129732863047843 18.9950895200977 -1.0229792967451927 -1.1586998308284568 11.0047376903794 5.122541138090121 0.0 0.0 0.0 0.0 0.0 0.0 -2.319064483829899 26.496850925188454 1.3489056782395819 -3.487863905317337 -1.4927480318314347e-15 -3.22747787222279e-15 0.0 0.0 0.0 -32.61812593766105 -3.155643773144837 56.950523655131775 -95.7381105490092 -2.6670034496689982e-15 -2.948428433459785e-15 -6.3611093629270335e-15 -6.3611093629270335e-15 -3.1805546814635168e-15 0.0 0.0 0.0 -4.59972875885947 4.034331881681914 -0.0036421093135106807 0.0 0.0 0.0 57.20992301570694 31.113162725220374 -61.33497030773878 76.15691002256119 4.36188497639391e-15 1.0724271841774964e-14 3.1805546814635168e-15 0.0 0.0 0.0 0.0 0.0 -1.0154580141541778 12.44833054954498 7.729898963937943 0.5817650160248907 11.027675370543355 5.514043258945493 0.0 0.0 0.0
0.0 0.0 100.47347915466602 -114.6374580835167 59.636737090587516 -64.86704467530635 0.0 0.0 -9.93923337957349e-17 -1.3453222069630777 18.492035306935207 -0.4614839070271512 -1.0287657546140383 12.420840505872953 5.972404033447176 -4.4139062980501586e-32 -3.1805546814635168e-15 -1.5902773407317584e-15 0.0 0.0 -9.93923337957349e-17 -2.0761510054866363 27.525416880967352 1.5897035345327015 -3.304751811558468 3.0875195474809204e-15 3.2709446964878802e-15 0.0 0.0 0.0 -32.6730197851267 -3.7209956760784535 56.897763236602785 -90.72339450804414 -1.3522076540635813e-14 4.412709787055619e-15 0.0 0.0 0.0 0.0 0.0 0.0 -4.432446321063872 4.074953630619562 0.0006700301152438057 0.0 0.0 0.0 51.25117819681826 29.158579699869097 -58.267146360293246 76.19188671724007 -8.83052607335269e-15 -1.1263629651398924e-14 0.0 0.0 0.0 0.0 0.0 -9.93923337957349e-17 -0.867695401524522 12.460994390053523 6.410246154180687 0.474518158219703 11.443926976341636 5.301622845639348 0.0 0.0 0.0
0.0 0.0 100.47347915466602 -112.71253715427153 57.64010567114037 -66.88045510921002 2.069018577211012e-33 -1.5902773407317584e-15 1.4908850069360235e-16 -0.9072992984860284 16.05726100946372 -1.1847532125448152 -1.2073509801712985 15.247077240274301 6.89689997783507 0.0 0.0 1.5902773407317584e-15 2.069018577211012e-33 -1.5902773407317584e-15 1.4908850069360235e-16 -1.6006587475349792 27.25126007201577 0.7273592552950668 -2.6901466027980687 -4.732187576052664e-15 -1.701828707450177e-15 0.0 0.0 0.0 -37.951967146852546 -1.645109904484891 57.63340041273797 -85.20450747944167 1.1705561761262677e-15 1.0764665619412078e-15 0.0 0.0 0.0 0.0 0.0 0.0 -2.063507680159545 4.128657244569912 -1.5545521955416124 0.0 0.0 0.0 53.21043781203012 29.205912741751312 -60.225570170588014 73.097796837588 -3.1270479358136735e-15 -9.559333241650192e-15 0.0 0.0 0.0 2.069018577211012e-33 -1.5902773407317584e-15 1.4908850069360235e-16 -0.6076725179987003 11.286199303826214 3.392949085683556 0.052985504901203684 12.842009522909402 3.6638915508138568 0.0 0.0 0.0
0.0 0.0 100.47347915466602 -112.03475514287206 56.96482724612239 -67.84171964551605 -6.3611093629270335e-15 0.0 0.0 -0.9053359522195447 15.587726213567965 -0.6101749751038716 -1.1090392673997156 15.717769601502274 5.785943065895643 0.0 0.0 0.0 -6.3611093629270335e-15 0.0 0.0 -1.6646930641847186 27.47883378787115 1.1900222963461697 -3.1133949058074273 -4.7690712605114254e-15 -1.2960515486594284e-16 0.0 0.0 0.0 -37.33257838285276 -2.1025386145015728 59.555979273016284 -83.54846812688594 1.865772724487832e-15 -6.862837062720834e-15 0.0 0.0 0.0 0.0 0.0 0.0 -1.3975410882250032 4.68161347954819 -2.7735401780042164 0.0 0.0 0.0 52.77702531360641 27.157928096499923 -61.58218919757126 70.38480695623335 -1.6662145233347956e-14 3.966715340735375e-15 0.0 0.0 -3.1805546814635164e-15 -6.3611093629270335e-15 0.0 0.0 -0.6272427896384245 11.297683585394953 3.1618050536947986 -0.022032628471197125 13.269114948772732 3.6355538292744716 0.0 0.0 0.0
0.0 0.0 100.47347915466602 -111.29355740853858 57.512175279686666 -69.10088212107236 0.0 0.0 -4.969616689786745e-17 -1.0534231836347316 14.762992581146467 0.6025401653110404 -0.9639906161025411 15.461474423131994 5.400221477734342 0.0 0.0 0.0 0.0 0.0 -4.969616689786745e-17 -1.9641519016710818 26.436338188671716 1.5918010421298103 -3.6639105966189494 4.7175552741466885e-15 1.7419794602174555e-15 0.0 0.0 0.0 -35.610043628533695 -2.207172354100748 61.44295840131001 -79.45101806215004 2.0500809540893826e-15 9.974238362898683e-15 0.0 0.0 0.0 0.0 0.0 0.0 -1.0047562743244394 5.1412133163052225 -3.1031811380990204 0.0 0.0 0.0 51.99598939163781 25.605091445260655 -61.881687150575786 67.31132321897036 8.813324225234707e-16 1.323720205124098e-15 6.361109362927033e-15 1.7655625192200634e-31 3.1805546814635164e-15 0.0 0.0 -4.969616689786745e-17 -0.7820104315847942 11.369721783193702 2.5768164869815826 -0.32013647851502575 12.524209459386856 3.2560772285541537 0.0 0.0 0.0
0.0 0.0 100.47347915466602 -112.22373469119489 59.19462690348152 -68.00994853195557 0.0 0.0 0.0 -0.9384241493408171 14.55565818128118 0.7675392637853867 -0.8332466039137456 15.94858754504994 5.28297075150986 0.0 0.0 0.0 0.0 0.0 0.0 -1.7108118889340151 25.64966494423787 1.1316011235492192 -2.660994264596639 -3.6925394940785284e-17 1.589848588908183e-15 0.0 0.0 0.0 -32.91076614505302 -4.3382012881644245 64.3363187587392 -75.32911529810929 3.147165470702399e-15 2.4292976614237723e-15 0.0 0.0 0.0 0.0 0.0 0.0 -1.067470805967471 5.450803152289656 -2.8208430540870557 0.0 0.0 0.0 50.58622889516341 23.893754571866875 -63.019253445970946 62.79632130522007 -2.9441176527446453e-15 7.386252213262095e-15 0.0 9.54166404439055e-15 0.0 0.0 0.0 0.0 -0.7005420615124736 11.328635179622246 1.7133001535482246 -0.3934747311262695 11.633769915732087 4.302650905069937 0.0 0.0 0.0
0.0 0.0 100.47347915466602 -112.25581801950703 61.193149720576116 -68.14820471471732 0.0 0.0 0.0 -0.8179830725957977 12.91839847528364 1.3342898571775499 -0.5946917476090945 14.724233846378924 5.692470488197551 0.0 0.0 0.0 0.0 0.0 0.0 -1.5977060022488265 24.503808238126975 2.0514078472934236 -2.555954056925323 -1.5366796981892536e-15 -2.4202906998166194e-15 0.0 0.0 7.951386703658792e-16 -30.25858520732943 -4.092455090439052 66.80713974661425 -71.13991832266615 1.8215181553174125e-14 -1.0434667126814556e-14 0.0 0.0 6.361109362927033e-15 0.0 0.0 7.951386703658792e-16 0.3924147014257571 6.795328896375357 -3.134721994102084 0.0 0.0 7.951386703658792e-16 48.61503113249345 20.819129959999376 -63.44872628088701 58.04319482054307 2.781194369575887e-15 -1.5430119767580797e-15 0.0 0.0 0.0 0.0 0.0 0.0 -0.7602865368908202 12.458011190694561 1.4720870603491532 -0.394885970525249 10.603985106101135 3.7654573859228764 0.0 0.0 -1.5902773407317584e-15
